<svg width="20" height="24" viewBox="0 0 20 24" fill="none" xmlns="http://www.w3.org/2000/svg">
<path d="M15.1429 5.88889C15.1429 8.58895 12.8403 10.7778 10 10.7778C7.15968 10.7778 4.85714 8.58895 4.85714 5.88889C4.85714 3.18883 7.15968 1 10 1C12.8403 1 15.1429 3.18883 15.1429 5.88889Z" fill="white"/>
<path d="M10 14.4444C5.02944 14.4444 1 18.2749 1 23H19C19 18.2749 14.9706 14.4444 10 14.4444Z" fill="white"/>
<path d="M15.1429 5.88889C15.1429 8.58895 12.8403 10.7778 10 10.7778C7.15968 10.7778 4.85714 8.58895 4.85714 5.88889C4.85714 3.18883 7.15968 1 10 1C12.8403 1 15.1429 3.18883 15.1429 5.88889Z" stroke="#0D0842" stroke-width="1.5" stroke-linecap="round" stroke-linejoin="round"/>
<path d="M10 14.4444C5.02944 14.4444 1 18.2749 1 23H19C19 18.2749 14.9706 14.4444 10 14.4444Z" stroke="#0D0842" stroke-width="1.5" stroke-linecap="round" stroke-linejoin="round"/>
</svg>
